<svg xmlns="http://www.w3.org/2000/svg" fill="none" viewBox="0 0 67 47">
  <path fill="#000" d="M29.364 16.388c-1.245 1.914-6.23 4.785-11.155 4.68.77 1.45 2.54 2.79 5.915 2.21 7.101-1.22 15.638-10.387 15.026-16.657h-.079c-.187 2.06-1.515 5.016-2.758 6.037.74-.942 2.12-3.498 2.088-6.175-.079-6.613-8.765-8.452-18.822-4.19a2.02 2.02 0 0 0 .077-.02l.003-.001C20.36 2.083 25.513.697 27.87.998 12.493 3.404.32 14.791.01 22.42c-.306 7.506 7.591 8.692 14.464 9.723 5.415.813 10.194 1.531 9.825 5.168 1.063-3.345-3.916-5.526-6.168-6.512-.472-.207-.825-.361-.976-.463a.342.342 0 0 1 .226-.027c2.156.432 7.389 2.749 7.508 5.799.204 5.216-7.003 6.39-8.424 5.323.21.813 1.917 1.838 3.77 1.384-.837.45-4.393.463-4.566-2.257-.104-1.642.7-2.704.7-2.704-.159.014-.508.515-.619.73-.076.146-.149.26-.348.248a.341.341 0 0 0-.27.148c-1.463 2.827.595 6.16 4.577 5.864 2.6-.193 4.348-1.414 5.06-2.186-.385.264-1.107.719-1.663.798a4.442 4.442 0 0 1-.013-.033l-.014-.032c1.87-1.092 3.416-2.706 3.687-4.88.83-6.669-6.85-9.04-13.727-11.162-5.056-1.56-9.677-2.987-10.16-5.89C1.356 12.314 29.852.002 36.51 5.836c-.695-3.47-9.18-2.323-10.51-2.143a2.336 2.336 0 0 1-.174.021c4.856-1.62 11.397-1.315 11.55 2.616.123 3.147-5.996 10.917-17.692 13.465 2.358.781 7.406-1.38 9.68-3.406Z"/>
  <path fill="#000" d="M24.628 5.741C11.805 8.747-1.44 19.658 5.488 22.346c-2.026-3.26 3.458-11.42 19.14-16.605ZM40.652 22.9c-.078-.155-.218-.287-.363-.425-.277-.263-.575-.544-.502-1.043.003-.018-.013-.04-.029-.06a.617.617 0 0 1-.012-.016c-.157-.227-.303-.211-.462.03a97.247 97.247 0 0 1-1.18 1.74c-1.093 1.58-5.173 6.808-6.582 6.98-.28.034-.395-.18-.416-.417-.075-.888.811-3.136 2.162-4.857-1.294 2.33-1.503 3.743-1.232 4.063.959-3.554 4.126-6.907 6.758-9.183l.012-.012c.049-.05.09-.093.09-.139-.01-.764-1.12-1.604-2.355-1.554a.68.68 0 0 0-.64-.895c-.346.654-2.195 3.486-3.203 4.595-2.665 2.972-6.518 6.031-10.64 7.792-.08.042.748.856 2.457.053-.037.085-.508.507-.938.56.235.214 1.151.236 1.88 0 1.636-.535 4.171-3.216 4.929-4.222l-.176.294c-.652 1.081-2.271 3.765-2.614 5.92-.198 1.25-.054 2.282.67 2.39.14 1.193 1.033 2.057 1.678 1.975.11-.014.226-.104.26-.28.637-3.28 5.038-8.762 5.438-8.207-1.405 1.91-2.663 5.593-2.036 7.339.377 1.05 1.958 1.452 4.015.625-1.645-.791-1.274-4.838-.64-6.422-.513 2.574-.185 4.861.499 5.394l.042-.026c-1.057-4.83 1.356-9.371 3.104-11.249.157-.267.16-.476.026-.743Zm24.725 6.707c.813-.975.795-2.517.536-2.805 2.213-.19.536 2.506-.536 2.805Zm-47.049 7.182c-2.895 1.206-1.91 4.803.052 4.445-1.464-.256-1.513-3.245 2.05-3.995-.016-.774-1.34-.768-2.102-.45Zm-4.178 7.73c.444.364.4.95-.269 1.063-.594.1-1.225-.502-1.454-1.212-.369-1.14.237-2.292.82-2.717-.43.772-.045 2.09.902 2.866Z"/>
  <path fill="#000" fill-rule="evenodd" d="M65.016 26.472c-.514-1.302-5.965-.771-9.18.63a4.66 4.66 0 0 0-.222-.444c.915-2.357 3.695-6.666 6.67-9.603a18.978 18.978 0 0 1 1.55-1.38c.06-.878-2.253-2.02-3.781-.768-1.864 2.004-3.779 5.906-4.626 7.755l-.177.006c.392-2.07 2.47-5.843 3.737-7.076-1.66.058-5.148 7.047-7.025 13.473h-.005c-1.979.846-5.667 3.104-6.928 4.458-.07.076-.162-.203-.168-.302-.197-3.12 3.136-5.454 6.141-7.559.282-.197.561-.393.835-.587.402-.286.127-1.127-.041-1.274-.596.89-1.706 1.8-2.855 2.743-1.162.954-2.365 1.941-3.12 2.973.534-1.043 1.94-2.306 3.228-3.46 1.34-1.203 2.552-2.29 2.514-2.893-.106-1.712-2.254-3.48-3.173-3.95.166-.292.583-1.103.444-1.968-.159-.989-1.176-1.424-2.037-1.34.154.58-.014 1.483-.171 1.962-1.675-1.144-4.28-1.318-4.303.145 1.159-.84 3.56-.23 4.618.498-4.672-1.533-5.87 1.022-5.266 2.374 0 0 1.945-.059 3.508.525-.352 1.009-2.68 5.696-5.34 8.611.064-.02.128-.04.19-.057.12-.035.234-.068.34-.116.322-.144 3.274-4.15 4.092-5.395.015.079-.656 1.492-1.895 3.42 1.377-1.603 3.6-5.1 4.156-5.997 0 0 1.63.646 1.702 1.8.052.833-1.46 2.166-3.2 3.7-2.34 2.063-5.094 4.49-5.022 6.562.023.662.365 1.63 1.05 2.258-.278-.563-.415-1.3-.325-2.125.125-1.148.689-2.463 1.927-3.714-2.28 2.861-1.474 5.45-.986 6.162-7.44.476-13.467 3.15-13.495 7.305.017.092-.06.216-.118.309-.749 1.195-.422 2.687.089 2.867 3.507-4.278 9.515-7.773 14.789-8.776 0-.1-.426-.084-1.116.027-2.553.363-5.788 1.296-8.39 2.88-.07-2.206 9.389-4.44 15.345-3.585.098-.874-1.745-1.214-3.795-1.248.975-3.913 7.08-7.155 9.43-7.966-2.319.998-6.044 3.322-7.705 5.854 1.57-1.417 3.658-2.947 4.541-3.36-2.177 9.114.13 12.822 1.778 12.764 1.146-.04 2.206-1.238 2.87-3.983-.521 1.232-1.183 2.062-1.811 2.084-1.559.055-1.765-2.282-1.765-2.282.996 2.566 3.857.57 4.17-4.007.023-.316.042-.64.057-.979.068-1.487.004-3.326-.262-4.937 2.228-.69 5.838-.739 6.813.023.241-1.358-2.237-1.677-6.25-.79 2.717-.892 6.56-1.206 6.813.102.128.663-.25 1.643-.54 2.02-.14.181.323.044.445-.115.67-.87 1.775-2.928 1.251-4.254Zm-10.91 12.146c-1.238.075-1.03-4.776.455-8.653a4.45 4.45 0 0 1 .464-.168c.256 2.985-.22 6.178-.713 7.58.708-.024 1.485-3.142 1.44-6.103l.147-.005c.398 4.713-1.013 7.321-1.793 7.35Z" clip-rule="evenodd"/>
</svg>
